<svg width="304" height="242" viewBox="0 0 304 242" fill="none" xmlns="http://www.w3.org/2000/svg">
<path d="M140.594 0.348524C141.189 0.276221 142.544 0.170981 143.603 0.113942C144.662 0.0569033 146.359 0.00629142 147.374 0.000667884C148.39 -0.00495565 149.87 0.0255721 150.664 0.0681503C151.459 0.110729 152.47 0.166161 152.911 0.191065C153.353 0.216772 154.183 0.291485 154.757 0.357361C155.331 0.42404 156.125 0.513213 156.522 0.555791C156.92 0.59837 157.696 0.70602 158.248 0.795997C158.799 0.88517 159.738 1.05066 160.334 1.16313C160.93 1.27641 161.833 1.45716 162.34 1.56562C162.847 1.67407 163.534 1.82992 163.865 1.91187C164.196 1.99381 164.846 2.1593 165.309 2.2782C165.773 2.3979 166.441 2.58107 166.794 2.68631C167.147 2.79155 168.014 3.05987 168.72 3.2824C169.426 3.50493 170.202 3.7604 170.445 3.85118C170.668 3.93434 171.004 4.05929 171.229 4.14267L171.288 4.1645C171.508 4.24724 172.122 4.48263 172.652 4.68989C173.182 4.89636 173.85 5.16629 174.136 5.2892C174.423 5.41292 175.128 5.72141 175.701 5.97608C176.275 6.22994 177.376 6.75534 178.149 7.14336C178.921 7.53058 179.932 8.0608 180.396 8.3219C180.86 8.58218 181.383 8.87863 181.559 8.97905C181.736 9.08027 182.187 9.34618 182.562 9.57112C182.938 9.79607 183.822 10.3568 184.528 10.8187C185.235 11.2807 186.318 12.0222 186.936 12.4664C187.554 12.9107 188.384 13.5269 188.781 13.8354C189.179 14.1447 190.028 14.8307 190.667 15.361C191.307 15.8904 191.975 16.4575 192.152 16.6214C192.328 16.7845 192.851 17.2746 193.315 17.7092C193.779 18.1446 194.647 18.9897 195.246 19.5874C195.844 20.1851 196.742 21.1082 197.241 21.6384C197.739 22.1687 198.75 23.3255 199.486 24.2092C200.223 25.0929 201.22 26.3405 201.704 26.9816C202.188 27.6227 202.664 28.2557 202.763 28.3875C202.861 28.5192 203.398 29.3146 203.958 30.1541C204.517 30.9936 205.055 31.8066 205.156 31.9616C205.255 32.1159 205.604 32.6943 205.932 33.247C206.258 33.7989 206.55 34.305 206.58 34.3717C206.61 34.4376 206.759 34.7091 206.912 34.9743C207.065 35.2394 207.551 36.1793 207.991 37.063C208.431 37.9467 209.015 39.1758 209.287 39.7944C209.559 40.413 209.907 41.2445 210.059 41.6422C210.212 42.0398 210.375 42.4552 210.422 42.566C210.469 42.6761 210.63 43.1107 210.78 43.5301C210.93 43.9494 211.16 44.6186 211.291 45.0163C211.422 45.4139 211.599 45.9562 211.685 46.2213C211.77 46.4864 211.928 47.0287 212.037 47.4264C212.145 47.824 212.328 48.5109 212.443 48.9528C212.558 49.3946 212.74 50.1715 212.85 50.68C212.96 51.1877 213.137 52.0738 213.246 52.6482C213.354 53.2226 213.517 54.2172 213.608 54.8575C213.699 55.4977 213.829 56.5646 213.898 57.2274C213.967 57.8902 214.057 58.8662 214.1 59.3965C214.142 59.9267 214.177 61.6435 214.177 63.2124C214.177 64.7814 214.142 66.4982 214.101 67.0284C214.058 67.5586 213.968 68.5347 213.899 69.1975C213.83 69.8603 213.74 70.6733 213.699 71.0051C213.657 71.336 213.569 71.9868 213.501 72.4511C213.435 72.9155 213.303 73.71 213.21 74.2185C213.116 74.7262 212.952 75.5577 212.845 76.0662C212.737 76.574 212.556 77.3878 212.441 77.8738C212.327 78.3598 212.147 79.0829 212.041 79.4805C211.935 79.8782 211.771 80.4743 211.677 80.8061C211.583 81.1371 211.311 82.0408 211.073 82.8145C210.835 83.5873 210.457 84.7265 210.234 85.3451C210.011 85.9637 209.761 86.6505 209.68 86.8715C209.598 87.0924 209.223 88.0323 208.845 88.9602C208.467 89.8881 207.879 91.3438 207.537 92.1945C207.196 93.0453 206.899 93.7426 206.877 93.7434C206.854 93.7442 206.421 93.4719 205.914 93.1377C205.407 92.8035 204.982 92.5312 204.971 92.5328C204.96 92.5344 204.635 92.3239 204.249 92.0652C203.863 91.8065 203.285 91.4273 202.965 91.2217C202.645 91.016 202.122 90.6794 201.801 90.4737C201.481 90.2673 200.642 89.7162 199.936 89.2486C199.229 88.7803 198.616 88.3802 198.571 88.3577C198.527 88.3352 198.166 88.1038 197.769 87.8427C197.372 87.5816 196.794 87.2057 196.485 87.0072C196.176 86.8088 195.626 86.4529 195.261 86.2167C194.752 85.8857 194.61 85.7548 194.645 85.6463C194.67 85.5692 194.817 85.1619 194.97 84.7425C195.123 84.3232 195.288 83.8886 195.335 83.7785C195.382 83.6676 195.501 83.3608 195.6 83.0957C195.699 82.8305 195.913 82.2521 196.075 81.8103C196.238 81.3684 196.456 80.7715 196.56 80.4847C196.664 80.1971 196.848 79.6549 196.967 79.2797C197.088 78.9037 197.254 78.3799 197.336 78.1148C197.417 77.8497 197.571 77.3251 197.675 76.9499C197.78 76.574 197.96 75.9056 198.076 75.4637C198.19 75.0219 198.374 74.2627 198.484 73.7767C198.594 73.2906 198.775 72.3684 198.887 71.7281C198.998 71.0878 199.16 70.0386 199.247 69.3983C199.334 68.758 199.452 67.6366 199.51 66.9079C199.567 66.1785 199.615 64.4978 199.615 63.1723C199.615 61.8467 199.567 60.1838 199.51 59.4768C199.451 58.7698 199.368 57.9384 199.324 57.6291C199.28 57.3198 199.192 56.7052 199.127 56.2634C199.062 55.8215 198.935 55.0985 198.843 54.6566C198.753 54.2148 198.569 53.401 198.436 52.8491C198.303 52.2963 198.068 51.411 197.915 50.8808C197.762 50.3506 197.515 49.5553 197.367 49.1134C197.218 48.6716 196.966 47.9662 196.804 47.5469C196.643 47.1275 196.448 46.6206 196.37 46.4222C196.292 46.2237 195.99 45.5361 195.698 44.8958C195.406 44.2555 195.017 43.4417 194.834 43.0882C194.651 42.7347 194.302 42.084 194.058 41.6422C193.815 41.2003 193.453 40.5673 193.253 40.2363C193.054 39.9045 192.763 39.4353 192.608 39.1919C192.453 38.9485 192.127 38.4424 191.883 38.0672C191.639 37.6912 191.167 37.0043 190.834 36.5408C190.502 36.0765 189.887 35.2635 189.469 34.7332C189.05 34.203 188.275 33.2631 187.746 32.6445C187.217 32.0259 185.897 30.6321 184.813 29.5467C183.63 28.3626 182.282 27.1093 181.439 26.4096C180.666 25.7693 179.601 24.9202 179.072 24.5225C178.542 24.1256 178.018 23.7384 177.908 23.6629C177.797 23.5882 177.401 23.3191 177.025 23.0652C176.65 22.8113 175.982 22.3791 175.541 22.1052C175.099 21.8304 174.233 21.3211 173.615 20.9732C172.997 20.6262 172.022 20.1048 171.448 19.8164C170.874 19.5272 169.936 19.0837 169.362 18.8307C168.788 18.5768 168.193 18.3157 168.038 18.249C167.883 18.1832 167.486 18.0265 167.155 17.902C166.824 17.7767 166.21 17.5477 165.791 17.3927C165.372 17.2376 164.577 16.9685 164.025 16.795C163.473 16.6206 162.751 16.4021 162.421 16.3081C162.089 16.2149 161.475 16.0494 161.056 15.9402C160.637 15.8317 159.897 15.6526 159.411 15.5425C158.926 15.4325 158.113 15.2686 157.606 15.1786C157.099 15.0878 156.069 14.9247 155.319 14.8155C154.568 14.7062 153.25 14.5512 152.39 14.4724C151.193 14.3616 150.07 14.3278 147.615 14.3278C145.144 14.3278 144.046 14.3616 142.841 14.4732C141.98 14.5536 140.662 14.7086 139.912 14.8171C139.161 14.9263 138.15 15.0894 137.665 15.1802C137.179 15.271 136.385 15.4341 135.899 15.5417C135.414 15.6502 134.673 15.8293 134.254 15.9394C133.835 16.0502 133.148 16.2358 132.729 16.3523C132.311 16.4688 131.443 16.7363 130.804 16.9468C130.164 17.1573 129.297 17.4609 128.878 17.6216C128.459 17.7823 128.025 17.9438 127.915 17.9807C127.804 18.0177 127.461 18.1559 127.152 18.2868C126.843 18.4186 126.139 18.7319 125.588 18.9833C125.035 19.2348 124.133 19.6686 123.581 19.9466C123.029 20.2245 122.415 20.5426 122.217 20.6535C122.019 20.7644 121.423 21.105 120.893 21.4111C120.364 21.7172 119.569 22.1992 119.128 22.4836C118.686 22.768 117.82 23.36 117.202 23.7995C116.584 24.2389 115.862 24.7627 115.597 24.9627C115.332 25.1636 114.592 25.7629 113.952 26.2947C113.312 26.8265 111.847 28.2019 110.696 29.3507C109.544 30.4995 108.388 31.6748 108.127 31.9624C107.866 32.25 107.182 33.0639 106.607 33.77C106.032 34.4762 105.325 35.3615 105.035 35.7374C104.746 36.1126 104.13 36.9802 103.667 37.6655C103.204 38.35 102.612 39.2626 102.35 39.6924C102.088 40.123 101.754 40.6829 101.606 40.9376C101.458 41.1931 101.072 41.9073 100.748 42.5259C100.424 43.1444 99.9193 44.1752 99.6272 44.8154C99.3343 45.4557 98.9033 46.468 98.6698 47.0649C98.4363 47.6609 98.0832 48.637 97.8858 49.2339C97.6884 49.83 97.4324 50.6438 97.3177 51.0415C97.2029 51.4392 97.036 52.0537 96.9469 52.4072C96.8579 52.7607 96.695 53.4652 96.585 53.9738C96.4751 54.4815 96.2962 55.4399 96.1862 56.1027C96.0763 56.7655 95.9286 57.8677 95.8572 58.5529C95.7866 59.2382 95.6951 60.2858 95.655 60.8827C95.6141 61.4788 95.5804 62.4918 95.5796 63.1321C95.5787 63.7724 95.6125 64.8216 95.655 65.4619C95.6975 66.1021 95.7874 67.1867 95.8556 67.8719C95.9238 68.5572 96.0723 69.7132 96.1846 70.4427C96.2978 71.1713 96.4799 72.2021 96.5899 72.7323C96.7006 73.2625 96.914 74.2209 97.0657 74.8612C97.2174 75.5015 97.3923 76.2068 97.4533 76.4277C97.5151 76.6487 97.698 77.2809 97.8601 77.8336C98.0222 78.3855 98.2774 79.1993 98.4267 79.6412C98.5759 80.083 98.8038 80.7338 98.9338 81.0872C99.0638 81.4407 99.2596 81.9645 99.3704 82.2521C99.4811 82.5389 99.6657 83.0001 99.7804 83.2764C99.8952 83.5528 100.074 83.9866 100.178 84.2404C100.282 84.4943 100.61 85.2447 100.907 85.9074C101.205 86.5702 101.759 87.727 102.138 88.4782C102.518 89.2293 103.05 90.2416 103.321 90.7276C103.593 91.2136 103.888 91.7374 103.978 91.8925C104.068 92.0467 104.321 92.4805 104.541 92.8565L105.247 94.0616C105.416 94.3484 105.788 94.9453 106.072 95.3871C106.357 95.8289 106.953 96.7327 107.397 97.3955C107.84 98.0583 108.434 98.9259 108.717 99.3236C109.001 99.7212 109.3 100.137 109.383 100.247C109.467 100.358 109.772 100.774 110.06 101.171C110.349 101.569 110.846 102.241 111.165 102.666C111.484 103.091 111.923 103.67 112.141 103.952C112.358 104.234 112.79 104.79 113.1 105.188C113.409 105.586 113.92 106.237 114.234 106.634C114.548 107.032 115.221 107.882 115.728 108.522C116.236 109.162 117.213 110.392 117.901 111.254C118.588 112.115 119.863 113.688 120.734 114.748C121.606 115.809 122.682 117.128 123.127 117.68C123.572 118.232 123.977 118.721 124.028 118.765C124.078 118.809 124.493 119.315 124.95 119.89C125.406 120.464 125.806 120.952 125.838 120.974C125.869 120.997 126.178 121.361 126.524 121.783C126.87 122.207 127.512 122.983 127.952 123.51C128.392 124.037 129.455 125.318 130.316 126.357C131.177 127.395 131.922 128.281 131.972 128.325C132.022 128.369 132.796 129.291 133.693 130.374C134.59 131.456 135.382 132.402 135.451 132.476C135.521 132.55 135.652 132.694 135.743 132.797C135.833 132.9 136.374 133.544 136.944 134.23C137.514 134.915 138.021 135.511 138.071 135.555C138.121 135.599 138.627 136.195 139.194 136.881C139.762 137.566 140.267 138.162 140.317 138.206C140.367 138.251 140.891 138.865 141.481 139.572C142.073 140.279 142.596 140.894 142.644 140.938C142.693 140.982 143.126 141.488 143.607 142.062C144.088 142.637 144.522 143.143 144.571 143.187C144.62 143.231 145.053 143.737 145.533 144.312C146.013 144.886 146.509 145.465 146.636 145.597C146.763 145.73 147.035 146.046 147.615 146.76L147.9 146.459C148.057 146.295 148.577 145.69 149.058 145.115C149.538 144.541 149.991 144.016 150.064 143.95C150.137 143.884 150.569 143.378 151.023 142.826C151.478 142.273 151.909 141.767 151.981 141.701C152.053 141.635 152.578 141.02 153.147 140.335C153.715 139.65 154.241 139.035 154.316 138.97C154.39 138.904 154.916 138.289 155.484 137.604C156.052 136.919 156.558 136.322 156.608 136.278C156.658 136.234 157.164 135.638 157.731 134.953C158.299 134.267 158.805 133.671 158.854 133.627C158.904 133.583 159.305 133.113 159.744 132.583C160.182 132.053 161.024 131.04 161.613 130.333C162.203 129.626 162.709 129.03 162.738 129.008C162.766 128.985 163.682 127.892 164.772 126.578C165.862 125.263 166.817 124.118 166.894 124.033C166.971 123.947 167.089 123.813 167.155 123.734C167.221 123.654 167.54 123.263 167.864 122.865C168.188 122.465 168.608 121.958 168.799 121.737C168.989 121.516 169.519 120.883 169.977 120.332C170.436 119.779 171.117 118.948 171.491 118.484C171.865 118.02 172.235 117.568 172.315 117.48C172.394 117.391 172.505 117.264 172.561 117.198C172.617 117.132 172.965 116.699 173.334 116.234C173.702 115.77 174.061 115.329 174.131 115.253C174.2 115.178 174.329 115.024 174.417 114.913C174.506 114.801 174.614 114.71 174.658 114.709C174.702 114.709 174.919 114.83 175.14 114.979C175.36 115.129 176.01 115.556 176.584 115.93C177.158 116.303 177.88 116.772 178.189 116.971L178.189 116.971C178.498 117.17 179.021 117.508 179.352 117.721C179.683 117.934 180.315 118.342 180.757 118.627C181.198 118.912 181.685 119.228 181.84 119.328L182.027 119.45C182.275 119.61 182.688 119.878 183.084 120.135L183.607 120.473C184.02 120.741 184.444 121.015 184.689 121.174C185.042 121.403 185.647 121.795 186.033 122.046C186.419 122.296 186.735 122.537 186.735 122.581C186.735 122.625 186.189 123.321 185.523 124.127C184.856 124.934 183.854 126.149 183.296 126.829C182.738 127.51 181.925 128.503 181.49 129.038C181.055 129.574 180.543 130.193 180.353 130.414C180.164 130.635 178.809 132.261 177.344 134.029C175.879 135.796 174.655 137.26 174.624 137.282C174.594 137.305 173.953 138.063 173.201 138.97C172.449 139.876 171.403 141.123 170.878 141.741C170.352 142.36 169.545 143.317 169.083 143.87C168.621 144.422 168.202 144.91 168.153 144.955C168.103 144.999 167.597 145.595 167.03 146.28C166.462 146.965 165.957 147.561 165.907 147.606C165.857 147.65 165.426 148.156 164.948 148.73C164.469 149.305 164.038 149.811 163.99 149.855C163.942 149.899 163.43 150.495 162.853 151.181C162.277 151.866 161.677 152.57 161.52 152.747C161.365 152.924 160.682 153.719 160.006 154.515C159.329 155.31 158.753 155.978 158.726 156.001C158.699 156.023 158.269 156.529 157.772 157.126C157.275 157.722 156.826 158.246 156.774 158.29C156.724 158.335 156.267 158.858 155.76 159.455C155.253 160.052 154.802 160.58 154.758 160.629C154.713 160.678 154.353 161.094 153.956 161.553C153.56 162.012 153.018 162.606 152.753 162.873C152.487 163.139 152.107 163.47 151.908 163.606C151.71 163.742 151.331 163.971 151.066 164.115C150.801 164.259 150.259 164.487 149.862 164.623C149.16 164.863 149.099 164.871 147.655 164.874C146.228 164.878 146.144 164.869 145.489 164.647C145.114 164.52 144.599 164.312 144.345 164.185C144.092 164.059 143.69 163.818 143.453 163.653C143.216 163.487 142.881 163.225 142.711 163.07C142.54 162.915 141.84 162.137 141.155 161.342C140.472 160.547 139.872 159.861 139.823 159.817C139.774 159.773 139.324 159.249 138.822 158.652C138.32 158.055 137.888 157.55 137.86 157.527C137.833 157.505 136.808 156.312 135.582 154.876C134.357 153.44 133.239 152.139 133.099 151.984C132.957 151.829 132.378 151.143 131.811 150.458C131.243 149.772 130.718 149.158 130.644 149.092C130.569 149.026 130.136 148.519 129.681 147.967C129.225 147.414 128.812 146.927 128.761 146.883C128.712 146.838 128.115 146.134 127.434 145.316C126.754 144.498 126.174 143.812 126.145 143.79C126.116 143.767 125.381 142.9 124.509 141.862C123.638 140.823 122.814 139.848 122.679 139.693C122.542 139.537 121.814 138.672 121.06 137.769C120.307 136.866 119.405 135.782 119.059 135.359C118.711 134.937 118.403 134.574 118.373 134.551C118.342 134.529 117.45 133.462 116.391 132.181C115.331 130.9 113.509 128.692 112.342 127.276C111.175 125.859 109.986 124.413 109.699 124.062C109.412 123.712 108.815 122.973 108.374 122.42C107.932 121.868 107.25 121.018 106.858 120.532C106.467 120.046 106.044 119.522 105.919 119.367C105.795 119.212 105.427 118.761 105.103 118.363C104.779 117.966 104.201 117.243 103.82 116.757C103.465 116.304 102.841 115.505 102.381 114.916L102.282 114.788C101.817 114.191 101.367 113.613 101.282 113.503C101.197 113.392 100.849 112.941 100.511 112.499C100.171 112.057 99.3254 110.936 98.6305 110.008C97.9356 109.08 97.2077 108.091 97.0127 107.809L96.9403 107.705C96.7568 107.44 96.5392 107.127 96.4261 106.966C96.2986 106.784 95.9543 106.29 95.6614 105.871C95.3693 105.452 94.6768 104.402 94.1231 103.541C93.5694 102.68 93.0919 101.92 93.063 101.854C93.0333 101.787 92.7926 101.39 92.5278 100.97C92.263 100.551 91.67 99.5381 91.2093 98.7211C90.7495 97.9032 90.1694 96.8556 89.9214 96.3913C89.6734 95.927 89.1687 94.9332 88.8012 94.1821C88.4336 93.4309 87.9706 92.4725 87.7724 92.0531C87.5742 91.6338 87.2965 91.0184 87.1561 90.6874C87.0165 90.3556 86.8271 89.9042 86.7356 89.6832C86.6441 89.4623 86.4877 89.0831 86.3874 88.8397C86.3112 88.6548 86.2021 88.3916 86.114 88.1789L86.0383 87.9962C85.9468 87.7752 85.7783 87.3414 85.6643 87.0321C85.5496 86.7228 85.3698 86.2344 85.2655 85.9476C85.1612 85.66 85.0151 85.2623 84.9413 85.0639C84.8675 84.8655 84.6885 84.3409 84.5433 83.899C84.3981 83.4572 84.1806 82.7703 84.0602 82.3726C83.9399 81.975 83.7778 81.4327 83.6999 81.1676C83.6221 80.9025 83.4656 80.3417 83.3533 79.9224C83.2401 79.503 83.0571 78.7977 82.9464 78.3558C82.8349 77.914 82.6535 77.1363 82.5428 76.6286C82.432 76.1201 82.2707 75.3255 82.1849 74.8612C82.0982 74.3969 81.9345 73.4208 81.8206 72.6921C81.7066 71.9627 81.5389 70.752 81.4482 70.0009C81.3575 69.2497 81.2275 67.406 81.1593 65.9037C81.0478 63.4334 81.0478 62.9152 81.1609 60.481C81.2307 59.0004 81.3623 57.1928 81.4538 56.4642C81.5453 55.7347 81.7114 54.5787 81.823 53.8934C81.9345 53.2082 82.1159 52.2144 82.2258 51.6842C82.3357 51.154 82.55 50.1956 82.7017 49.5553C82.8533 48.915 83.0283 48.2096 83.0892 47.9887C83.151 47.7678 83.334 47.1347 83.4961 46.5828C83.6582 46.0301 83.9134 45.2171 84.0626 44.7753C84.2119 44.3334 84.4398 43.6827 84.5698 43.3292C84.6998 42.9757 84.8956 42.4511 85.0063 42.1643C85.1171 41.8767 85.2976 41.4253 85.4084 41.1601C85.5183 40.895 85.7029 40.4524 85.8176 40.176C85.9324 39.8997 86.06 39.6105 86.1017 39.5333C86.1426 39.4562 86.2734 39.1758 86.3914 38.9107C86.5085 38.6456 86.86 37.9041 87.1722 37.2638C87.4843 36.6227 88.0797 35.4844 88.497 34.7332C88.9135 33.9821 89.3364 33.2406 89.4359 33.0863C89.5362 32.9313 89.8403 32.4437 90.1124 32.0018C90.3844 31.56 90.7776 30.9406 90.9855 30.6264C91.1925 30.3115 91.5327 29.8054 91.7414 29.5017C91.9492 29.1973 92.3015 28.696 92.5238 28.3867C92.7469 28.0774 93.0093 27.7102 93.1088 27.5705C93.2075 27.4299 93.5036 27.0322 93.7668 26.6868C94.0308 26.3405 94.7691 25.4239 95.4078 24.651C96.0466 23.8774 96.6115 23.209 96.6637 23.1648C96.715 23.1206 97.0585 22.7406 97.426 22.3213C97.7943 21.9011 98.8014 20.8407 99.6641 19.9634C100.527 19.0861 101.759 17.8932 102.4 17.3123C103.043 16.7315 103.802 16.0527 104.086 15.8036C104.371 15.5546 104.983 15.0484 105.447 14.6789C105.911 14.3094 106.597 13.7695 106.972 13.4795C107.346 13.1895 107.9 12.7733 108.201 12.5556C108.503 12.3371 108.833 12.1041 108.933 12.0382C109.034 11.9716 109.689 11.5345 110.391 11.0662C111.091 10.5978 112.116 9.94308 112.668 9.61129C113.219 9.2787 113.96 8.84408 114.313 8.64565C114.666 8.44722 115.244 8.12909 115.597 7.9395C115.95 7.7491 116.727 7.34983 117.322 7.05178C117.918 6.75373 118.983 6.24842 119.689 5.92948C120.396 5.61055 121.226 5.24341 121.535 5.11327C121.844 4.98393 122.277 4.8104 122.498 4.72765C122.719 4.64571 123.152 4.48263 123.461 4.36534C123.77 4.24724 124.221 4.08014 124.464 3.99258C124.707 3.90581 125.447 3.65516 126.109 3.43585C126.771 3.21653 127.728 2.91527 128.236 2.76584C128.744 2.61642 129.502 2.40111 129.921 2.28784C130.34 2.17457 131.044 1.99542 131.486 1.88937C131.927 1.78253 132.649 1.62105 133.091 1.52866C133.532 1.43708 134.254 1.28765 134.696 1.19768C135.137 1.1077 135.768 0.996837 136.1 0.951849C136.43 0.906861 136.991 0.816081 137.344 0.751008C137.697 0.685133 138.329 0.597566 138.748 0.554988C139.167 0.513213 139.998 0.420023 140.594 0.348524Z" fill="#1270B7"/>
<path fill-rule="evenodd" clip-rule="evenodd" d="M295.128 201.394C295.502 201.392 295.881 201.448 296.191 201.551C296.456 201.64 296.858 201.848 297.085 202.013C297.312 202.179 297.615 202.478 297.759 202.676C297.903 202.875 298.097 203.263 298.189 203.54C298.35 204.019 298.357 204.2 298.357 211.192L300.023 211.212C301.654 211.231 301.697 211.237 302.149 211.453C302.403 211.574 302.76 211.81 302.942 211.975C303.125 212.141 303.372 212.421 303.492 212.598C303.612 212.774 303.777 213.117 303.859 213.361C303.955 213.648 304.005 214.013 304 214.405C303.996 214.776 303.933 215.178 303.837 215.45C303.752 215.693 303.559 216.058 303.407 216.26C303.256 216.463 303.024 216.721 302.891 216.832C302.759 216.943 302.452 217.139 301.768 217.498L298.357 217.538L298.317 238.707L298.122 239.189C297.982 239.536 297.779 239.819 297.4 240.199C297.013 240.586 296.745 240.776 296.391 240.915C296.095 241.032 295.679 241.118 295.308 241.139C294.835 241.165 294.596 241.135 294.185 240.996C293.898 240.899 293.519 240.719 293.342 240.599C293.166 240.478 292.904 240.238 292.761 240.065C292.618 239.893 292.402 239.553 292.058 238.868L292.018 217.538H290.774C289.688 217.538 289.472 217.516 289.069 217.362C288.815 217.265 288.427 217.038 288.206 216.856C287.986 216.675 287.688 216.348 287.544 216.128C287.401 215.91 287.229 215.541 287.163 215.309C287.097 215.077 287.043 214.643 287.044 214.345C287.044 214.047 287.1 213.622 287.167 213.401C287.235 213.18 287.405 212.822 287.547 212.604C287.69 212.387 287.95 212.093 288.126 211.951C288.303 211.809 288.645 211.59 288.888 211.465C289.315 211.246 289.377 211.237 292.018 211.192L292.058 203.68L292.264 203.239C292.377 202.995 292.597 202.652 292.755 202.475C292.912 202.299 293.181 202.055 293.352 201.935C293.523 201.814 293.861 201.644 294.104 201.556C294.387 201.454 294.755 201.396 295.128 201.394ZM266.62 210.237C267.19 210.233 268.025 210.295 268.666 210.388C269.263 210.474 270.02 210.623 270.352 210.718C270.682 210.813 271.242 210.998 271.595 211.13C271.948 211.261 272.562 211.532 272.96 211.732C273.357 211.931 274.042 212.334 274.482 212.627C274.922 212.921 275.645 213.49 276.087 213.894C276.53 214.298 277.001 214.75 277.134 214.899C277.268 215.047 277.542 215.367 277.743 215.61C277.944 215.854 278.29 216.324 278.511 216.655C278.732 216.986 279.005 217.42 279.118 217.619C279.23 217.817 279.476 218.287 279.663 218.663C279.852 219.039 280.074 219.544 280.158 219.788C280.243 220.031 280.421 220.591 280.553 221.033C280.686 221.475 280.864 222.216 280.947 222.68C281.031 223.144 281.139 223.957 281.189 224.487C281.239 225.031 281.255 225.803 281.223 226.255C281.194 226.697 281.082 227.583 280.975 228.223C280.869 228.863 280.705 229.641 280.61 229.95C280.516 230.26 280.317 230.838 280.17 231.236C280.022 231.633 279.757 232.239 279.58 232.581C279.403 232.924 279.284 233.249 279.314 233.304C279.345 233.36 279.57 233.658 279.816 233.967C280.061 234.276 280.313 234.584 280.377 234.65C280.439 234.716 280.909 235.291 281.42 235.927C281.93 236.563 282.504 237.286 282.695 237.533C282.885 237.781 283.079 238.129 283.124 238.305C283.169 238.482 283.193 238.934 283.178 239.309C283.156 239.839 283.104 240.081 282.949 240.385C282.839 240.602 282.605 240.94 282.429 241.137C282.236 241.352 281.899 241.596 281.586 241.748C281.145 241.961 280.972 241.999 280.463 242C279.869 242.001 279.846 241.993 278.737 241.407C278.119 241.08 277.253 240.623 276.811 240.392C276.37 240.159 275.539 239.725 273.923 238.88L272.919 239.371C272.367 239.642 271.538 239.99 271.074 240.144C270.61 240.299 269.834 240.509 269.348 240.611C268.578 240.772 268.236 240.796 266.66 240.796C265.078 240.796 264.75 240.773 264.012 240.612C263.548 240.511 262.826 240.318 262.407 240.184C261.988 240.049 261.175 239.713 260.602 239.436C260.028 239.16 259.306 238.759 258.997 238.547C258.688 238.334 258.11 237.899 257.713 237.58C257.316 237.261 256.755 236.752 256.468 236.448C256.182 236.143 255.712 235.588 255.425 235.213C255.138 234.838 254.8 234.368 254.673 234.169C254.546 233.97 254.29 233.536 254.104 233.204C253.918 232.873 253.656 232.348 253.522 232.039C253.388 231.73 253.186 231.224 253.075 230.914C252.963 230.605 252.796 230.081 252.704 229.749C252.612 229.418 252.458 228.695 252.362 228.143C252.223 227.342 252.187 226.813 252.186 225.532C252.185 224.231 252.218 223.734 252.36 222.921C252.457 222.369 252.613 221.646 252.706 221.314C252.8 220.983 252.967 220.459 253.077 220.149C253.187 219.84 253.344 219.442 253.426 219.266C253.509 219.089 253.577 218.917 253.579 218.884C253.579 218.851 253.786 218.453 254.036 218C254.287 217.547 254.709 216.851 254.974 216.454C255.291 215.979 255.857 215.329 256.625 214.56C257.267 213.916 258.1 213.172 258.475 212.907C258.851 212.642 259.446 212.261 259.799 212.062C260.152 211.863 260.694 211.589 261.003 211.453C261.312 211.318 261.763 211.136 262.006 211.047C262.249 210.96 262.736 210.806 263.089 210.706C263.442 210.606 264.165 210.462 264.694 210.384C265.224 210.307 266.09 210.241 266.62 210.237ZM259.129 224.954C259.026 225.051 258.895 225.221 258.838 225.331C258.782 225.442 258.709 225.676 258.679 225.853C258.648 226.03 258.662 226.328 258.709 226.516C258.758 226.704 258.913 226.988 259.057 227.149C259.201 227.309 259.417 227.49 259.538 227.551C259.66 227.611 259.976 227.661 260.241 227.661C260.505 227.661 260.822 227.61 260.943 227.547C261.064 227.485 261.261 227.331 261.38 227.206C261.5 227.081 261.654 226.815 261.723 226.616C261.793 226.418 261.848 226.2 261.847 226.134C261.845 226.068 261.809 225.878 261.764 225.713C261.721 225.547 261.568 225.28 261.424 225.12C261.281 224.96 261.028 224.761 260.862 224.678C260.697 224.595 260.408 224.529 260.22 224.531C260.033 224.532 259.753 224.589 259.599 224.656C259.444 224.723 259.233 224.857 259.129 224.954ZM265.827 224.914C265.745 224.989 265.585 225.194 265.474 225.371C265.331 225.599 265.27 225.811 265.266 226.094C265.262 226.39 265.315 226.591 265.471 226.857C265.587 227.056 265.802 227.31 265.95 227.42C266.184 227.595 266.302 227.621 266.861 227.621C267.451 227.621 267.528 227.601 267.814 227.38C267.985 227.247 268.199 226.994 268.29 226.817C268.394 226.616 268.455 226.346 268.453 226.094C268.451 225.807 268.393 225.602 268.248 225.371C268.137 225.194 267.977 224.989 267.894 224.914C267.812 224.839 267.608 224.722 267.443 224.653C267.277 224.584 267.006 224.529 266.841 224.531C266.675 224.532 266.414 224.589 266.259 224.656C266.104 224.724 265.91 224.839 265.827 224.914ZM272.298 225.12C272.154 225.28 272.001 225.547 271.957 225.713C271.913 225.878 271.876 226.068 271.875 226.134C271.874 226.2 271.929 226.418 271.999 226.616C272.068 226.815 272.222 227.081 272.342 227.206C272.46 227.331 272.658 227.485 272.779 227.547C272.9 227.61 273.216 227.661 273.481 227.661C273.746 227.661 274.062 227.611 274.183 227.551C274.304 227.49 274.521 227.309 274.665 227.149C274.808 226.988 274.964 226.704 275.011 226.516C275.061 226.316 275.071 226.024 275.035 225.813C275 225.615 274.872 225.316 274.748 225.15C274.622 224.981 274.366 224.779 274.163 224.688C273.965 224.6 273.649 224.529 273.461 224.531C273.273 224.533 272.994 224.601 272.839 224.682C272.684 224.762 272.441 224.96 272.298 225.12Z" fill="#3AAA35"/>
<path fill-rule="evenodd" clip-rule="evenodd" d="M43.7365 200.147C44.1113 200.165 44.6714 200.257 44.9804 200.351C45.2893 200.445 45.7226 200.624 45.9433 200.748C46.164 200.872 46.57 201.212 46.8461 201.503C47.1221 201.795 47.4608 202.259 47.598 202.536C47.7649 202.869 47.8861 203.281 47.9583 203.761C48.0466 204.349 48.0674 207.157 48.0698 233.124H56.0142C62.8488 233.124 64.0452 233.141 64.5805 233.247C64.9223 233.316 65.472 233.505 65.8018 233.669C66.1316 233.833 66.5954 234.148 66.833 234.369C67.0713 234.59 67.3658 234.951 67.4894 235.172C67.6122 235.393 67.7526 235.763 67.8015 235.996C67.8505 236.228 67.8906 236.67 67.8906 236.98C67.8906 237.289 67.8497 237.732 67.7999 237.964C67.7494 238.196 67.5961 238.582 67.4589 238.822C67.3209 239.061 67.028 239.418 66.8073 239.614C66.5866 239.811 66.2071 240.071 65.9647 240.193C65.7224 240.315 65.2345 240.501 64.2394 240.796H43.0545L42.3322 240.607C41.935 240.503 41.3974 240.305 41.1382 240.165C40.8782 240.026 40.5034 239.767 40.3044 239.591C40.1062 239.414 39.8061 239.034 39.6384 238.747C39.4707 238.46 39.2508 237.936 38.9659 236.94L38.9186 204.002L39.1208 203.299C39.2323 202.912 39.4498 202.397 39.6039 202.154C39.7579 201.911 40.0565 201.546 40.2659 201.343C40.4753 201.139 40.8276 200.872 41.0483 200.75C41.269 200.627 41.6485 200.463 41.8909 200.385C42.1332 200.307 42.4943 200.215 42.6933 200.178C42.8924 200.143 43.3618 200.129 43.7365 200.147ZM87.0694 200.118C87.8855 200.114 88.7883 200.14 89.0756 200.176C89.3629 200.212 89.8139 200.304 90.0787 200.379C90.3435 200.455 90.7535 200.614 90.9911 200.733C91.2278 200.852 91.5849 201.094 91.7839 201.27C91.9837 201.447 92.3224 201.881 92.5382 202.234C92.7533 202.588 92.9282 202.932 92.9266 202.997C92.9258 203.063 92.9587 203.154 92.9996 203.198C93.0414 203.243 93.1489 203.496 93.2396 203.761C93.3302 204.026 93.4931 204.496 93.6015 204.805C93.7106 205.114 93.9128 205.674 94.0509 206.05C94.1889 206.426 94.3518 206.878 94.412 207.054C94.4729 207.231 94.6535 207.737 94.814 208.179C94.9745 208.621 95.155 209.127 95.2152 209.304C95.2746 209.481 95.4383 209.932 95.5779 210.308C95.7176 210.684 95.8805 211.136 95.939 211.312C95.9984 211.489 96.1525 211.923 96.2825 212.276C96.4125 212.63 96.9421 214.094 97.4597 215.53C97.9773 216.966 98.5262 218.485 98.6786 218.904C98.8311 219.323 99.0044 219.812 99.063 219.989C99.1216 220.165 99.2853 220.617 99.4273 220.993C99.5694 221.369 99.7323 221.82 99.7909 221.997C99.8494 222.174 100.028 222.68 100.189 223.122C100.349 223.564 100.53 224.07 100.591 224.246C100.651 224.423 100.814 224.875 100.952 225.251C101.091 225.627 101.252 226.078 101.311 226.255C101.37 226.432 101.532 226.883 101.672 227.259C101.811 227.635 101.975 228.087 102.035 228.263C102.096 228.44 102.258 228.891 102.396 229.267C102.534 229.643 102.828 230.456 103.05 231.075C103.27 231.694 103.517 232.38 103.597 232.601C103.676 232.822 103.943 233.582 104.188 234.288C104.432 234.995 104.711 235.899 104.806 236.297C104.903 236.695 104.98 237.273 104.98 237.582C104.979 237.901 104.913 238.353 104.828 238.627C104.746 238.892 104.553 239.304 104.4 239.543C104.247 239.783 103.922 240.162 103.677 240.387C103.432 240.612 102.999 240.912 102.714 241.055C102.429 241.198 101.979 241.37 101.714 241.438C101.45 241.504 100.962 241.559 100.631 241.559C100.3 241.558 99.7218 241.483 99.3471 241.393C98.9724 241.303 98.4524 241.113 98.1932 240.972C97.934 240.831 97.5696 240.552 97.3835 240.354C97.1981 240.155 96.9445 239.794 96.821 239.55C96.6966 239.307 96.4173 238.603 96.1998 237.984C95.9824 237.365 95.7561 236.715 95.6967 236.538C95.6373 236.361 95.4977 235.963 95.3862 235.654C95.2754 235.345 95.005 234.586 94.7859 233.967C94.5668 233.349 94.3478 232.743 94.2113 232.401H86.9491C80.1033 232.401 79.6844 232.409 79.6411 232.541C79.6154 232.618 79.5111 232.917 79.4083 233.204C79.3048 233.491 79.1299 233.979 79.0175 234.288C78.906 234.598 78.7174 235.122 78.5987 235.453C78.4807 235.785 78.3202 236.237 78.2424 236.458C78.1645 236.678 78.0105 237.112 77.8989 237.422C77.7874 237.731 77.5996 238.255 77.4816 238.586C77.3637 238.918 77.1887 239.352 77.094 239.55C76.9986 239.749 76.7394 240.105 76.5187 240.339C76.2972 240.575 75.9529 240.861 75.7547 240.976C75.5565 241.09 75.1593 241.252 74.872 241.336C74.5848 241.42 73.9893 241.509 73.548 241.535C72.8835 241.573 72.6283 241.55 72.0634 241.406C71.6887 241.311 71.2184 241.152 71.0202 241.054C70.822 240.957 70.4224 240.642 70.1335 240.355C69.8406 240.064 69.5236 239.653 69.4193 239.43C69.3158 239.209 69.1818 238.865 69.1216 238.667C69.0614 238.468 69.0125 237.98 69.0125 237.582C69.0125 237.058 69.0702 236.649 69.2195 236.096C69.3326 235.677 69.5156 235.08 69.6263 234.77C69.7363 234.461 69.9128 233.973 70.0179 233.686C70.1231 233.399 70.3012 232.92 70.4136 232.621C70.5267 232.323 70.619 232.062 70.619 232.039C70.619 232.017 70.6864 231.845 70.7682 231.657C70.8509 231.469 71.0098 231.063 71.1221 230.754C71.2345 230.444 71.4945 229.74 71.6999 229.187C71.9061 228.635 72.1653 227.948 72.2769 227.661C72.3876 227.374 72.5633 226.922 72.6669 226.657C72.7704 226.391 72.9895 225.813 73.1532 225.371C73.3169 224.929 73.5399 224.332 73.6491 224.046C73.7574 223.759 73.9364 223.288 74.0455 223.001C74.1546 222.714 74.3111 222.298 74.3922 222.077C74.474 221.856 74.6538 221.386 74.7918 221.033C74.929 220.68 75.0911 220.246 75.1505 220.069C75.2107 219.892 75.3736 219.458 75.5124 219.105C75.6512 218.751 75.8318 218.281 75.9136 218.061C75.9947 217.84 76.1576 217.406 76.2747 217.097C76.3919 216.787 76.5556 216.353 76.639 216.132C76.7225 215.912 76.8782 215.495 76.9857 215.209C77.0932 214.922 77.2971 214.38 77.4383 214.004C77.5795 213.628 77.7609 213.14 77.8427 212.919C77.9238 212.698 78.0875 212.264 78.2071 211.955C78.3258 211.646 78.4887 211.212 78.5682 210.991C78.6484 210.77 78.8266 210.3 78.9646 209.947C79.1018 209.593 79.2639 209.159 79.3233 208.983C79.3835 208.806 79.5464 208.372 79.6852 208.019C79.8248 207.665 80.0062 207.195 80.0896 206.974C80.1731 206.753 80.3288 206.337 80.4363 206.05C80.5438 205.763 80.7212 205.293 80.8295 205.006C80.9386 204.719 81.1601 204.122 81.3214 203.68C81.4827 203.239 81.7323 202.646 81.8751 202.364C82.0171 202.083 82.2996 201.667 82.5018 201.441C82.704 201.215 83.029 200.932 83.224 200.814C83.419 200.696 83.8315 200.519 84.1405 200.421C84.4494 200.324 84.9004 200.217 85.1435 200.185C85.3867 200.153 86.2533 200.123 87.0694 200.118ZM86.3882 211.995C86.0503 212.99 85.743 213.911 85.7053 214.044C85.6675 214.176 84.9822 216.218 84.183 218.583C83.3837 220.947 82.6808 223.044 82.6206 223.242C82.5612 223.441 82.3494 224.074 82.1512 224.648C81.9529 225.223 81.7684 225.774 81.7419 225.873L81.693 226.054C91.1901 226.054 92.2782 226.033 92.2525 225.954C92.2341 225.898 91.9765 225.112 91.6804 224.206C91.3843 223.3 90.9702 222.035 90.7616 221.394C90.5521 220.754 90.2087 219.687 89.9984 219.025C89.7882 218.362 89.4632 217.35 89.2754 216.775C89.0884 216.201 88.6551 214.863 88.3133 213.803C87.9722 212.742 87.5605 211.463 87.4001 210.959C87.2396 210.454 87.0847 210.075 87.055 210.115C87.0261 210.155 86.726 211.001 86.3882 211.995ZM134.134 200.874L134.696 201.061C135.004 201.164 135.465 201.353 135.719 201.48C135.972 201.608 136.364 201.884 136.589 202.094C136.814 202.303 137.117 202.692 137.263 202.957C137.448 203.296 137.554 203.631 137.618 204.082C137.687 204.565 137.687 204.874 137.618 205.327C137.567 205.659 137.49 206.021 137.447 206.131C137.405 206.241 137.237 206.527 137.076 206.767C136.914 207.005 136.584 207.354 136.341 207.54C136.097 207.726 135.665 207.978 135.378 208.101C135.09 208.224 134.603 208.372 134.294 208.429C133.879 208.505 132.514 208.533 124.384 208.541V223.122C124.384 236.186 124.37 237.759 124.256 238.245C124.186 238.543 124.028 238.986 123.904 239.229C123.781 239.473 123.505 239.867 123.29 240.107C123.075 240.347 122.683 240.683 122.418 240.854C122.153 241.025 121.684 241.24 121.375 241.332C121.066 241.425 120.488 241.519 120.091 241.54C119.564 241.57 119.194 241.542 118.727 241.437C118.373 241.358 117.85 241.175 117.563 241.031C117.276 240.887 116.842 240.576 116.599 240.341C116.356 240.105 116.033 239.695 115.881 239.43C115.729 239.165 115.531 238.695 115.441 238.386C115.278 237.829 115.276 237.679 115.236 208.541H110.642C107.033 208.541 105.91 208.516 105.406 208.427C105.053 208.364 104.529 208.204 104.242 208.072C103.955 207.939 103.54 207.692 103.319 207.521C103.099 207.352 102.773 206.996 102.595 206.732C102.389 206.425 102.222 206.048 102.135 205.689C102.059 205.379 101.998 204.946 101.997 204.725C101.997 204.504 102.055 204.088 102.125 203.801C102.196 203.514 102.356 203.098 102.479 202.877C102.603 202.656 102.861 202.327 103.052 202.146C103.243 201.964 103.58 201.708 103.801 201.577C104.021 201.446 104.436 201.255 104.724 201.152C105.111 201.014 105.513 200.951 106.288 200.909C106.862 200.877 113.362 200.857 134.134 200.874ZM158.729 200.844C165.772 200.839 170.215 200.865 170.566 200.915C170.874 200.959 171.362 201.067 171.649 201.156C171.935 201.245 172.333 201.412 172.532 201.528C172.73 201.644 172.986 201.832 173.1 201.946C173.214 202.061 173.393 202.28 173.497 202.435C173.601 202.59 173.751 202.969 173.83 203.279C173.913 203.604 173.974 204.137 173.974 204.544C173.975 204.937 173.917 205.486 173.841 205.789C173.767 206.087 173.608 206.495 173.489 206.693C173.369 206.891 173.149 207.148 173.001 207.264C172.853 207.379 172.534 207.573 172.291 207.696C172.048 207.818 171.516 207.986 171.107 208.069C170.407 208.211 169.832 208.219 151.908 208.219V216.815L159.752 216.817C164.066 216.818 167.903 216.851 168.279 216.891C168.654 216.93 169.213 217.056 169.522 217.17C169.92 217.315 170.224 217.502 170.566 217.808C170.945 218.15 171.09 218.351 171.248 218.754C171.427 219.213 171.448 219.38 171.448 220.39C171.448 221.486 171.442 221.529 171.196 222.037C171.045 222.352 170.806 222.682 170.594 222.869C170.402 223.038 170.046 223.267 169.803 223.377C169.56 223.486 169.109 223.633 168.8 223.704C168.31 223.816 167.198 223.836 151.908 223.885V233.445L171.207 233.492L171.849 233.677C172.203 233.779 172.654 233.948 172.853 234.053C173.051 234.158 173.326 234.344 173.463 234.467C173.6 234.59 173.787 234.799 173.879 234.931C173.97 235.064 174.126 235.408 174.225 235.694C174.369 236.116 174.404 236.394 174.404 237.14C174.404 237.879 174.368 238.165 174.23 238.566C174.134 238.843 173.975 239.19 173.876 239.338C173.776 239.486 173.587 239.698 173.454 239.81C173.322 239.921 172.997 240.118 172.732 240.249C172.467 240.381 171.962 240.557 171.609 240.642C170.991 240.79 170.509 240.796 146.813 240.796L146.131 240.607C145.756 240.503 145.232 240.308 144.967 240.174C144.701 240.038 144.266 239.709 143.998 239.438C143.698 239.136 143.425 238.763 143.288 238.466C143.165 238.201 142.987 237.659 142.72 236.538V205.126L142.901 204.383C143 203.974 143.195 203.414 143.335 203.138C143.474 202.862 143.754 202.462 143.957 202.248C144.16 202.034 144.542 201.739 144.807 201.591C145.071 201.442 145.541 201.242 145.85 201.146C146.159 201.05 146.646 200.945 146.933 200.912C147.22 200.88 152.528 200.849 158.729 200.844ZM3.89434 200.918L21.2275 200.908L22.4312 201.107C23.0932 201.216 24.0321 201.431 24.5176 201.583C25.0031 201.735 25.5624 201.919 25.7614 201.993C25.9604 202.067 26.4291 202.282 26.8046 202.47C27.1794 202.659 27.6994 202.954 27.9585 203.126C28.2185 203.299 28.562 203.527 28.7209 203.635C28.8806 203.741 29.3404 204.158 29.7416 204.558C30.1437 204.959 30.642 205.522 30.8498 205.809C31.0569 206.096 31.4388 206.765 31.698 207.295C31.9572 207.826 32.2766 208.639 32.4074 209.103C32.5382 209.567 32.7043 210.272 32.7765 210.67C32.8495 211.067 32.9482 211.863 32.9956 212.437C33.059 213.195 33.059 213.756 32.994 214.486C32.945 215.038 32.8311 215.869 32.742 216.333C32.6521 216.798 32.4844 217.466 32.3697 217.82C32.2549 218.173 31.9965 218.806 31.7967 219.225C31.5969 219.645 31.2527 220.26 31.0328 220.591C30.8129 220.923 30.4662 221.39 30.2632 221.631C30.0602 221.872 29.7296 222.234 29.529 222.435C29.3284 222.636 28.9672 222.967 28.7265 223.17C28.4858 223.373 28.0179 223.72 27.6873 223.94C27.3559 224.16 26.742 224.506 26.3231 224.708C25.9034 224.908 25.2719 225.173 24.9188 225.293C24.5657 225.415 23.9157 225.601 23.4744 225.709C23.033 225.815 22.2201 225.961 21.6689 226.032C20.8536 226.135 19.5809 226.165 9.07022 226.215L9.06942 231.939C9.06942 235.379 9.03732 237.855 8.98917 238.145C8.94503 238.41 8.77491 238.898 8.61121 239.229C8.42103 239.614 8.1522 239.992 7.86653 240.274C7.62017 240.517 7.21332 240.833 6.96055 240.976C6.70857 241.12 6.20463 241.31 5.84031 241.397C5.47599 241.486 4.90705 241.558 4.57644 241.559C4.22897 241.56 3.68651 241.488 3.2925 241.39C2.91695 241.297 2.4114 241.109 2.16905 240.972C1.92591 240.835 1.53431 240.541 1.29838 240.318C1.06246 240.094 0.749499 239.695 0.602648 239.43C0.4566 239.165 0.2608 238.695 0 237.823L0.020864 221.234C0.041728 205.567 0.050555 204.618 0.186171 204.162C0.264812 203.897 0.436539 203.455 0.56734 203.178C0.698141 202.902 0.980607 202.487 1.19567 202.254C1.41153 202.022 1.79912 201.718 2.05831 201.577C2.31831 201.437 2.8367 201.231 3.21225 201.119L3.89434 200.918ZM9.07022 219.146C18.0875 219.146 18.3378 219.138 19.1612 218.972C19.6354 218.878 20.2405 218.702 20.5053 218.584C20.7701 218.466 21.2034 218.232 21.4682 218.063C21.7331 217.894 22.1126 217.59 22.3108 217.387C22.5098 217.183 22.7698 216.89 22.8886 216.736C23.0082 216.581 23.2152 216.228 23.35 215.953C23.4848 215.676 23.6566 215.188 23.732 214.868C23.8195 214.494 23.8652 213.982 23.8604 213.442C23.8564 212.978 23.7946 212.336 23.724 212.016C23.6525 211.695 23.4945 211.226 23.3717 210.972C23.2497 210.717 23.0603 210.383 22.952 210.229C22.8437 210.074 22.6463 209.838 22.513 209.705C22.3798 209.571 22.1439 209.366 21.9898 209.248C21.835 209.13 21.4377 208.901 21.1071 208.738C20.7757 208.574 20.1803 208.358 19.7831 208.255C19.3859 208.154 18.6636 208.032 18.1782 207.984C17.6766 207.935 15.5196 207.898 13.1828 207.898L9.07022 207.899V219.146Z" fill="#1270B7"/>
<path fill-rule="evenodd" clip-rule="evenodd" d="M146.652 20.8094C147.844 20.8046 149.397 20.8343 150.103 20.8761C150.809 20.9178 151.928 21.0271 152.59 21.1179C153.252 21.2095 154.3 21.3758 154.918 21.4882C155.535 21.6007 156.348 21.7646 156.723 21.8521C157.099 21.9397 157.821 22.1205 158.328 22.253C158.835 22.3864 159.486 22.5687 159.772 22.6595C160.059 22.7495 160.565 22.911 160.896 23.0194C161.227 23.1271 161.678 23.2837 161.899 23.3673C162.12 23.4516 162.661 23.6613 163.103 23.834C163.544 24.0068 164.429 24.3851 165.069 24.676C165.708 24.966 166.666 25.4271 167.195 25.6994C167.725 25.9718 168.321 26.2867 168.519 26.3992C168.717 26.5116 169.061 26.7117 169.282 26.8442C169.502 26.9776 169.809 27.1656 169.964 27.2636C170.119 27.3616 170.678 27.7231 171.207 28.067C171.737 28.4108 172.712 29.1001 173.374 29.5982C174.036 30.0963 175.011 30.8747 175.541 31.3294C176.07 31.7833 177.041 32.6807 177.697 33.3234C178.353 33.966 179.202 34.8369 179.583 35.2579C179.964 35.6788 180.479 36.2572 180.728 36.5432C180.977 36.8292 181.447 37.4068 181.773 37.8262C182.098 38.2464 182.585 38.8971 182.854 39.2723C183.125 39.6482 183.651 40.4251 184.026 40.9995C184.4 41.5739 184.861 42.3154 185.048 42.6464C185.237 42.9782 185.477 43.3935 185.583 43.5702C185.689 43.747 186.15 44.6508 186.61 45.5787C187.069 46.5065 187.68 47.8626 187.968 48.5913C188.255 49.3207 188.639 50.3691 188.822 50.921C189.004 51.4737 189.272 52.3414 189.42 52.8491C189.567 53.3576 189.78 54.1521 189.893 54.6165C190.006 55.0808 190.187 55.9123 190.296 56.4642C190.405 57.0169 190.57 57.9569 190.663 58.553C190.755 59.1499 190.892 60.2705 190.966 61.0434C191.063 62.0452 191.101 63.2341 191.101 65.1807C191.101 67.1272 191.063 68.3162 190.966 69.318C190.892 70.0917 190.755 71.2123 190.663 71.8084C190.571 72.4053 190.406 73.3268 190.296 73.857C190.186 74.3872 190.007 75.2002 189.896 75.6646C189.785 76.1289 189.621 76.7796 189.529 77.1106C189.438 77.4424 189.166 78.3101 188.924 79.0387C188.683 79.7682 188.358 80.6896 188.204 81.0873C188.049 81.4849 187.797 82.0995 187.643 82.453C187.49 82.8065 187.233 83.3849 187.071 83.7384C186.908 84.0919 186.563 84.7964 186.305 85.3049C186.047 85.8127 185.597 86.6449 185.307 87.1527C185.017 87.6612 184.624 88.3207 184.433 88.6188C184.243 88.9168 184.087 89.1787 184.087 89.2012C184.087 89.2237 184.191 89.3587 184.319 89.5025C184.447 89.6463 185.248 90.5951 186.1 91.6113C186.951 92.6276 187.905 93.7483 188.219 94.1017C188.533 94.4552 189.222 95.2457 189.749 95.8579C190.276 96.4701 191.249 97.5964 191.911 98.3604C192.573 99.1244 193.656 100.377 194.318 101.143C194.98 101.91 195.827 102.881 196.2 103.3C196.649 103.805 196.968 104.254 197.142 104.626C197.287 104.935 197.478 105.477 197.568 105.831C197.668 106.227 197.73 106.735 197.73 107.156C197.73 107.579 197.669 108.084 197.568 108.482C197.478 108.835 197.304 109.342 197.181 109.607C197.058 109.872 196.833 110.269 196.682 110.49C196.532 110.711 196.167 111.127 195.874 111.414C195.522 111.758 195.098 112.065 194.629 112.314C194.205 112.538 193.641 112.757 193.235 112.855C192.819 112.956 192.287 113.019 191.871 113.019C191.495 113.018 191.035 112.982 190.848 112.939C190.66 112.896 189.595 112.412 188.48 111.865C187.366 111.317 185.208 110.256 183.686 109.505C182.163 108.755 179.401 107.392 177.547 106.476C175.693 105.56 173.31 104.382 172.251 103.857C171.191 103.332 170.244 102.903 170.144 102.901C170.045 102.899 169.951 102.926 169.935 102.959C169.92 102.992 169.73 103.123 169.513 103.25C169.298 103.377 168.923 103.59 168.68 103.725C168.437 103.859 167.967 104.119 167.637 104.3C167.305 104.483 166.782 104.754 166.473 104.903C166.164 105.052 165.586 105.326 165.189 105.511C164.792 105.696 164.051 106.013 163.544 106.216C163.037 106.418 162.368 106.679 162.059 106.795C161.75 106.911 161.173 107.111 160.775 107.238C160.378 107.365 159.764 107.556 159.411 107.663C159.058 107.769 158.48 107.932 158.127 108.024C157.774 108.116 157.197 108.263 156.843 108.351C156.49 108.439 155.605 108.619 154.877 108.75C154.15 108.883 153.12 109.05 152.59 109.122C152.061 109.195 150.851 109.305 149.902 109.368C148.953 109.431 147.563 109.482 146.813 109.482C146.062 109.482 144.673 109.431 143.723 109.368C142.774 109.306 141.583 109.198 141.075 109.129C140.567 109.059 139.628 108.91 138.989 108.798C138.349 108.688 137.428 108.503 136.942 108.39C136.457 108.275 135.735 108.092 135.337 107.981C134.94 107.871 134.399 107.716 134.134 107.636C133.869 107.557 133.309 107.383 132.89 107.25C132.471 107.115 131.784 106.874 131.365 106.713C130.946 106.551 130.44 106.354 130.242 106.273C130.044 106.193 129.628 106.027 129.319 105.904C129.01 105.781 128.017 105.309 127.112 104.855C126.207 104.4 124.998 103.746 124.424 103.402C123.85 103.058 123.152 102.632 122.873 102.456C122.594 102.279 121.834 101.756 121.184 101.292C120.534 100.827 119.715 100.218 119.364 99.9358C119.014 99.653 118.365 99.1204 117.924 98.75C117.483 98.3805 116.362 97.3104 115.432 96.3712C114.504 95.4321 113.527 94.411 113.261 94.1017C112.995 93.7924 112.489 93.1779 112.135 92.736C111.781 92.2942 111.258 91.6073 110.972 91.2096C110.687 90.812 110.224 90.1428 109.943 89.7234C109.662 89.3041 109.351 88.8341 109.253 88.679C109.154 88.5248 108.912 88.1271 108.717 87.7953C108.521 87.4644 108.181 86.8675 107.962 86.4698C107.742 86.0721 107.433 85.4937 107.274 85.1844C107.115 84.8751 106.743 84.0798 106.447 83.417C106.151 82.7543 105.746 81.7966 105.547 81.2881C105.348 80.7804 104.959 79.6589 104.682 78.7977C104.406 77.9365 104.086 76.8696 103.973 76.4278C103.859 75.9859 103.678 75.2267 103.569 74.7407C103.46 74.2547 103.298 73.4593 103.209 72.9733C103.119 72.4873 102.947 71.3304 102.826 70.4026C102.612 68.7774 102.604 68.5829 102.604 65.1004C102.604 61.6178 102.612 61.4234 102.826 59.7982C102.947 58.8703 103.119 57.7134 103.209 57.2274C103.298 56.7414 103.46 55.946 103.569 55.46C103.678 54.974 103.86 54.2325 103.973 53.8131C104.086 53.3938 104.245 52.833 104.324 52.5679C104.403 52.3028 104.582 51.7244 104.72 51.2825C104.858 50.8407 105.041 50.2984 105.126 50.0775C105.211 49.8566 105.413 49.332 105.575 48.9126C105.738 48.4933 106.121 47.5895 106.428 46.9042C106.734 46.2189 107.239 45.1713 107.551 44.5745C107.863 43.9784 108.335 43.1284 108.599 42.6865C108.863 42.2447 109.207 41.6848 109.362 41.4413C109.517 41.1979 109.86 40.6741 110.125 40.2765C110.391 39.8788 110.862 39.2096 111.175 38.7902C111.488 38.3709 112.048 37.6479 112.422 37.1835C112.795 36.72 113.35 36.0508 113.655 35.6973C113.961 35.3438 114.884 34.3854 115.706 33.5676C116.529 32.7498 117.671 31.6901 118.245 31.2121C118.819 30.7349 119.685 30.0456 120.171 29.6809C120.656 29.317 121.343 28.8181 121.696 28.5731C122.049 28.3272 122.744 27.8693 123.24 27.5536C123.737 27.2387 124.161 26.9808 124.183 26.9808C124.206 26.9808 124.467 26.8306 124.765 26.6474C125.063 26.4634 125.812 26.0513 126.43 25.7308C127.048 25.411 128.167 24.8784 128.918 24.5474C129.668 24.2164 130.77 23.765 131.365 23.544C131.961 23.3239 132.973 22.9809 133.612 22.7832C134.252 22.5848 135.046 22.347 135.378 22.2546C135.708 22.1622 136.449 21.9799 137.023 21.8497C137.596 21.7188 138.499 21.5372 139.029 21.4456C139.558 21.3541 140.551 21.2022 141.236 21.109C141.92 21.015 142.93 20.9114 143.482 20.8785C144.034 20.8455 145.461 20.8142 146.652 20.8094ZM164.908 62.2219C164.622 62.2934 164.206 62.4428 163.985 62.5529C163.765 62.663 163.386 62.9048 163.143 63.0912C162.9 63.2775 162.54 63.6431 162.343 63.9034C162.146 64.1644 161.901 64.5404 161.799 64.7388C161.698 64.9373 161.543 65.3719 161.455 65.7029C161.362 66.054 161.296 66.5569 161.298 66.9079C161.299 67.2397 161.366 67.7635 161.446 68.0728C161.527 68.3821 161.676 68.7982 161.777 68.9967C161.878 69.1951 162.06 69.5028 162.182 69.6795C162.303 69.8563 162.543 70.1423 162.713 70.315C162.883 70.4885 163.221 70.7649 163.464 70.9296C163.707 71.0942 164.158 71.328 164.467 71.4493C164.927 71.6293 165.196 71.6759 165.951 71.7072C166.797 71.7426 166.928 71.7281 167.516 71.5305C167.869 71.4116 168.339 71.2115 168.559 71.0862C168.78 70.9601 169.138 70.7006 169.354 70.5094C169.57 70.3182 169.898 69.9446 170.082 69.6795C170.266 69.4144 170.51 68.9806 170.624 68.7155C170.738 68.4504 170.87 67.9258 170.919 67.5506C170.987 67.0188 170.982 66.7079 170.897 66.1447C170.831 65.7117 170.691 65.212 170.548 64.8995C170.416 64.6119 170.167 64.1942 169.996 63.97C169.823 63.7459 169.538 63.4334 169.362 63.2759C169.185 63.1185 168.806 62.8534 168.519 62.6863C168.233 62.5192 167.763 62.3151 167.476 62.2332C167.19 62.1504 166.683 62.0685 166.353 62.0492C166.021 62.0307 165.679 62.0323 165.59 62.0532C165.502 62.0741 165.195 62.1504 164.908 62.2219ZM145.85 63.3948C145.585 63.5001 145.205 63.6897 145.007 63.815C144.809 63.9403 144.445 64.2448 144.198 64.4914C143.952 64.738 143.649 65.1028 143.524 65.3012C143.4 65.4996 143.189 65.9342 143.056 66.2652C142.828 66.8292 142.813 66.9344 142.815 67.9121C142.816 68.8529 142.838 69.0119 143.035 69.5189C143.154 69.8281 143.372 70.2796 143.519 70.5231C143.666 70.7665 143.998 71.1633 144.258 71.4068C144.517 71.6502 144.945 71.9707 145.209 72.1201C145.473 72.2696 145.924 72.4672 146.211 72.5604C146.612 72.6913 146.935 72.7299 147.615 72.7299C148.297 72.7299 148.617 72.6913 149.019 72.5596C149.307 72.4656 149.739 72.2728 149.982 72.1306C150.226 71.9884 150.583 71.7402 150.779 71.5795C150.975 71.418 151.281 71.0878 151.459 70.8444C151.637 70.601 151.864 70.2395 151.964 70.041C152.063 69.8426 152.218 69.3903 152.308 69.0368C152.398 68.6834 152.472 68.1772 152.472 67.9121C152.472 67.647 152.396 67.1409 152.304 66.7874C152.212 66.4339 152.013 65.9101 151.863 65.6225C151.712 65.3349 151.432 64.9196 151.241 64.6987C151.05 64.4778 150.644 64.1283 150.338 63.9226C150.032 63.717 149.529 63.4599 149.22 63.3506C148.877 63.2293 148.393 63.1353 147.976 63.1088C147.601 63.0839 147.077 63.096 146.813 63.1337C146.548 63.1723 146.115 63.2896 145.85 63.3948ZM126.872 64.6264C126.448 64.8369 126.103 65.0939 125.704 65.4948C125.393 65.8081 125.023 66.2725 124.881 66.5263C124.74 66.7802 124.55 67.214 124.459 67.4904C124.368 67.7667 124.273 68.3178 124.248 68.7155C124.211 69.3164 124.235 69.5542 124.39 70.1214C124.492 70.4965 124.677 70.985 124.8 71.2059C124.922 71.4268 125.177 71.7908 125.365 72.0149C125.554 72.2398 125.888 72.5692 126.109 72.7484C126.33 72.9275 126.691 73.1645 126.912 73.2738C127.132 73.3838 127.44 73.514 127.594 73.563C127.748 73.6128 128.145 73.6907 128.476 73.7365C128.905 73.7968 129.264 73.7943 129.72 73.7309C130.073 73.6811 130.543 73.5734 130.763 73.4915C130.984 73.4087 131.39 73.195 131.666 73.0167C131.942 72.8384 132.323 72.5387 132.513 72.3507C132.702 72.1627 132.985 71.8108 133.14 71.5674C133.295 71.324 133.527 70.8364 133.656 70.4829C133.867 69.9005 133.887 69.7494 133.881 68.8762C133.875 68.0117 133.85 67.8495 133.639 67.3096C133.511 66.9786 133.275 66.5087 133.115 66.2652C132.957 66.0218 132.614 65.625 132.354 65.3815C132.095 65.1381 131.631 64.8063 131.323 64.6432C131.015 64.4794 130.502 64.2898 130.182 64.2215C129.861 64.1524 129.338 64.1002 129.018 64.1042C128.698 64.109 128.22 64.1612 127.955 64.2199C127.69 64.2793 127.202 64.4617 126.872 64.6264ZM201.821 201.11C202.549 201.127 203.561 201.195 204.068 201.261C204.575 201.327 205.388 201.471 205.874 201.583C206.359 201.694 207.207 201.934 207.76 202.115C208.311 202.297 209.178 202.631 209.685 202.859C210.193 203.087 210.933 203.458 211.331 203.684C211.728 203.91 212.323 204.282 212.655 204.509C212.985 204.738 213.346 204.987 213.457 205.063C213.567 205.139 213.983 205.474 214.379 205.807C214.776 206.139 215.339 206.647 215.631 206.934C216.002 207.299 216.242 207.626 216.428 208.019C216.636 208.456 216.703 208.714 216.729 209.183C216.757 209.658 216.726 209.896 216.587 210.308C216.49 210.595 216.279 211.008 216.117 211.224C215.956 211.441 215.698 211.719 215.543 211.842C215.389 211.965 215.027 212.164 214.741 212.284C214.314 212.464 214.096 212.504 213.537 212.505C212.976 212.507 212.763 212.469 212.334 212.292C211.949 212.133 211.644 211.916 211.17 211.467C210.817 211.132 210.258 210.654 209.927 210.403C209.596 210.152 209.217 209.872 209.084 209.781C208.951 209.69 208.518 209.436 208.121 209.217C207.723 208.999 207.163 208.723 206.877 208.606C206.59 208.489 206.157 208.321 205.914 208.235C205.671 208.148 205.075 207.979 204.59 207.861C204.069 207.734 203.247 207.61 202.584 207.56C201.766 207.498 201.143 207.5 200.297 207.566C199.657 207.616 198.79 207.743 198.371 207.847C197.952 207.952 197.32 208.136 196.966 208.257C196.613 208.378 195.981 208.642 195.562 208.843C195.143 209.044 194.456 209.432 194.038 209.705C193.619 209.977 193.004 210.418 192.673 210.685C192.342 210.952 191.805 211.455 191.48 211.803C191.154 212.152 190.667 212.744 190.398 213.12C190.129 213.496 189.715 214.147 189.479 214.566C189.242 214.985 188.947 215.582 188.822 215.892C188.697 216.201 188.525 216.652 188.438 216.896C188.351 217.139 188.187 217.735 188.073 218.221C187.948 218.756 187.836 219.549 187.792 220.23C187.749 220.884 187.747 221.791 187.787 222.399C187.826 222.973 187.932 223.787 188.024 224.206C188.115 224.626 188.299 225.295 188.432 225.693C188.566 226.09 188.884 226.849 189.14 227.38C189.397 227.91 189.814 228.651 190.068 229.026C190.321 229.402 190.755 229.98 191.03 230.312C191.304 230.643 191.796 231.168 192.121 231.478C192.447 231.788 193.02 232.259 193.396 232.525C193.771 232.791 194.241 233.104 194.439 233.219C194.637 233.335 195.089 233.574 195.442 233.751C195.795 233.928 196.319 234.162 196.605 234.27C196.892 234.379 197.416 234.548 197.769 234.646C198.122 234.745 198.754 234.875 199.173 234.936C199.592 234.997 200.387 235.07 200.939 235.098C201.629 235.132 202.317 235.108 203.145 235.02C203.846 234.945 204.701 234.794 205.192 234.658C205.656 234.53 206.251 234.346 206.516 234.25C206.781 234.153 207.286 233.933 207.639 233.762C207.992 233.59 208.57 233.263 208.923 233.034C209.276 232.805 209.782 232.435 210.047 232.211C210.311 231.987 210.781 231.569 211.09 231.283C211.42 230.977 211.866 230.662 212.173 230.518C212.651 230.292 212.765 230.272 213.539 230.272C214.323 230.272 214.421 230.29 214.903 230.525C215.255 230.696 215.561 230.93 215.85 231.248C216.096 231.519 216.352 231.905 216.452 232.16C216.588 232.507 216.625 232.765 216.622 233.365C216.62 233.97 216.579 234.228 216.431 234.61C216.273 235.013 216.096 235.236 215.351 235.976C214.861 236.462 214.098 237.129 213.657 237.459C213.216 237.789 212.511 238.277 212.09 238.544C211.67 238.81 211.02 239.179 210.646 239.365C210.272 239.55 209.803 239.773 209.605 239.86C209.407 239.947 209.081 240.078 208.883 240.151C208.685 240.223 208.143 240.402 207.679 240.55C207.216 240.698 206.44 240.911 205.954 241.023C205.469 241.136 204.602 241.293 204.028 241.373C203.291 241.476 202.513 241.517 201.38 241.514C200.298 241.511 199.461 241.464 198.812 241.369C198.283 241.292 197.397 241.123 196.846 240.993C196.294 240.862 195.572 240.663 195.241 240.551C194.91 240.439 194.404 240.255 194.118 240.143C193.831 240.03 193.163 239.727 192.633 239.47C192.104 239.213 191.327 238.795 190.908 238.542C190.489 238.288 190.055 238.011 189.945 237.928C189.834 237.844 189.419 237.528 189.022 237.226C188.625 236.924 187.921 236.302 187.457 235.843C186.993 235.384 186.431 234.792 186.207 234.528C185.982 234.264 185.62 233.812 185.402 233.525C185.184 233.239 184.863 232.786 184.689 232.521C184.515 232.256 184.19 231.714 183.967 231.316C183.744 230.918 183.376 230.177 183.15 229.669C182.924 229.161 182.646 228.492 182.533 228.183C182.419 227.874 182.238 227.314 182.131 226.938C182.023 226.562 181.858 225.893 181.763 225.452C181.669 225.01 181.54 224.161 181.477 223.564C181.414 222.967 181.361 221.991 181.359 221.395C181.359 220.798 181.412 219.785 181.48 219.145C181.547 218.505 181.67 217.691 181.752 217.338C181.834 216.984 181.924 216.569 181.95 216.414C181.977 216.259 182.147 215.68 182.328 215.128C182.509 214.576 182.765 213.871 182.896 213.562C183.028 213.252 183.214 212.837 183.31 212.639C183.406 212.442 183.671 211.936 183.898 211.515C184.125 211.094 184.525 210.425 184.788 210.027C185.051 209.629 185.591 208.906 185.989 208.42C186.386 207.934 187.123 207.139 187.627 206.653C188.131 206.167 188.886 205.512 189.305 205.199C189.723 204.885 190.282 204.484 190.547 204.307C190.812 204.13 191.317 203.827 191.67 203.632C192.023 203.439 192.691 203.105 193.155 202.892C193.619 202.679 194.196 202.432 194.439 202.343C194.682 202.254 195.205 202.081 195.602 201.958C196 201.835 196.758 201.641 197.287 201.526C197.817 201.411 198.684 201.277 199.213 201.227C199.743 201.178 200.249 201.125 200.337 201.109C200.425 201.093 201.094 201.094 201.821 201.11ZM224.792 201.396C225.243 201.392 225.541 201.438 225.875 201.564C226.129 201.658 226.481 201.833 226.658 201.953C226.834 202.072 227.082 202.293 227.21 202.443C227.336 202.593 227.553 202.933 227.941 203.68L227.982 214.084L228.323 213.815C228.51 213.667 228.953 213.358 229.306 213.129C229.659 212.899 230.273 212.553 230.67 212.358C231.067 212.164 231.59 211.929 231.833 211.835C232.077 211.743 232.672 211.57 233.157 211.452C233.971 211.255 234.172 211.238 235.725 211.238C237.258 211.239 237.494 211.259 238.333 211.451C238.841 211.568 239.563 211.781 239.938 211.924C240.314 212.069 240.891 212.329 241.222 212.502C241.553 212.676 242.094 213.003 242.426 213.23C242.757 213.457 243.428 214.04 243.918 214.526C244.445 215.049 245.005 215.704 245.292 216.133C245.559 216.53 245.939 217.181 246.139 217.579C246.338 217.976 246.59 218.537 246.7 218.824C246.809 219.111 246.973 219.563 247.064 219.828C247.155 220.093 247.323 220.708 247.436 221.194C247.55 221.68 247.704 222.529 247.777 223.082C247.889 223.932 247.915 225.163 247.942 231.115C247.971 237.497 247.961 238.196 247.839 238.707C247.764 239.016 247.659 239.359 247.603 239.47C247.548 239.58 247.306 239.888 247.064 240.153C246.786 240.458 246.458 240.716 246.17 240.856C245.921 240.977 245.491 241.111 245.214 241.153C244.897 241.201 244.551 241.201 244.272 241.152C244.028 241.11 243.65 240.989 243.429 240.885C243.208 240.78 242.869 240.556 242.675 240.384C242.48 240.212 242.224 239.928 242.106 239.751C241.987 239.575 241.839 239.304 241.778 239.149C241.688 238.921 241.658 237.516 241.615 231.678C241.574 225.856 241.54 224.327 241.44 223.644C241.373 223.18 241.239 222.511 241.143 222.158C241.046 221.804 240.781 221.137 240.553 220.673C240.21 219.977 240.029 219.72 239.497 219.18C239.109 218.787 238.664 218.426 238.373 218.271C238.109 218.13 237.603 217.918 237.25 217.8C236.66 217.603 236.504 217.586 235.324 217.587C234.172 217.589 233.974 217.61 233.398 217.794C233.045 217.906 232.521 218.117 232.235 218.26C231.948 218.404 231.478 218.694 231.191 218.906C230.905 219.117 230.488 219.483 230.265 219.72C230.042 219.956 229.695 220.385 229.493 220.672C229.29 220.958 229.025 221.392 228.903 221.636C228.781 221.879 228.61 222.276 228.523 222.519C228.437 222.763 228.291 223.268 228.201 223.644C228.043 224.299 228.034 224.627 227.941 238.791L227.688 239.311C227.524 239.649 227.27 239.988 226.966 240.275C226.613 240.609 226.349 240.775 225.895 240.946C225.372 241.143 225.21 241.169 224.651 241.139C224.146 241.112 223.899 241.052 223.488 240.857C223.146 240.695 222.821 240.454 222.545 240.159C222.313 239.913 222.035 239.522 221.925 239.289C221.815 239.057 221.69 238.669 221.644 238.426C221.588 238.128 221.568 232.436 221.602 203.921L221.833 203.399C221.961 203.112 222.161 202.738 222.279 202.569C222.398 202.399 222.673 202.139 222.891 201.99C223.109 201.842 223.485 201.649 223.729 201.562C224.016 201.458 224.387 201.4 224.792 201.396Z" fill="#3AAA35"/>
</svg>
